HIERARCHY
ROOT Hips
{
	OFFSET 0.00000 0.00000 0.00000
	CHANNELS 6 Xposition Yposition Zposition Zrotation Yrotation Xrotation 
	JOINT LHipJoint
	{
		OFFSET 0 0 0
		CHANNELS 3 Zrotation Yrotation Xrotation
		JOINT LeftUpLeg
		{
			OFFSET 1.92384 -1.64427 0.83032
			CHANNELS 3 Zrotation Yrotation Xrotation
			JOINT LeftLeg
			{
				OFFSET 2.52872 -6.94761 0.00000
				CHANNELS 3 Zrotation Yrotation Xrotation
				JOINT LeftFoot
				{
					OFFSET 2.51827 -6.91890 0.00000
					CHANNELS 3 Zrotation Yrotation Xrotation
					JOINT LeftToeBase
					{
						OFFSET 0.22757 -0.62524 2.06528
						CHANNELS 3 Zrotation Yrotation Xrotation
						End Site
						{
							OFFSET 0.00000 -0.00000 1.08218
						}
					}
				}
			}
		}
	}
	JOINT RHipJoint
	{
		OFFSET 0 0 0
		CHANNELS 3 Zrotation Yrotation Xrotation
		JOINT RightUpLeg
		{
			OFFSET -2.09517 -1.64427 0.83032
			CHANNELS 3 Zrotation Yrotation Xrotation
			JOINT RightLeg
			{
				OFFSET -2.55173 -7.01082 0.00000
				CHANNELS 3 Zrotation Yrotation Xrotation
				JOINT RightFoot
				{
					OFFSET -2.50265 -6.87598 0.00000
					CHANNELS 3 Zrotation Yrotation Xrotation
					JOINT RightToeBase
					{
						OFFSET -0.22612 -0.62126 1.98677
						CHANNELS 3 Zrotation Yrotation Xrotation
						End Site
						{
							OFFSET -0.00000 -0.00000 1.04433
						}
					}
				}
			}
		}
	}
	JOINT LowerBack
	{
		OFFSET 0 0 0
		CHANNELS 3 Zrotation Yrotation Xrotation
		JOINT Spine
		{
			OFFSET 0.02839 1.68926 0.31690
			CHANNELS 3 Zrotation Yrotation Xrotation
			JOINT Spine1
			{
				OFFSET -0.01522 1.70183 0.21192
				CHANNELS 3 Zrotation Yrotation Xrotation
				JOINT Neck
				{
					OFFSET 0 0 0
					CHANNELS 3 Zrotation Yrotation Xrotation
					JOINT Neck1
					{
						OFFSET -0.04523 1.88988 0.10630
						CHANNELS 3 Zrotation Yrotation Xrotation
						JOINT Head
						{
							OFFSET 0.05172 1.78070 -0.56858
							CHANNELS 3 Zrotation Yrotation Xrotation
							End Site
							{
								OFFSET 0.01532 1.90392 -0.20434
							}
						}
					}
				}
				JOINT LeftShoulder
				{
					OFFSET 0 0 0
					CHANNELS 3 Zrotation Yrotation Xrotation
					JOINT LeftArm
					{
						OFFSET 3.25522 0.75486 0.22086
						CHANNELS 3 Zrotation Yrotation Xrotation
						JOINT LeftForeArm
						{
							OFFSET 4.85645 -0.00000 0.00000
							CHANNELS 3 Zrotation Yrotation Xrotation
							JOINT LeftHand
							{
								OFFSET 2.79874 -0.00000 0.00000
								CHANNELS 3 Zrotation Yrotation Xrotation
								JOINT LeftFingerBase
								{
									OFFSET 0 0 0
									CHANNELS 3 Zrotation Yrotation Xrotation
									JOINT LeftHandIndex1
									{
										OFFSET 0.57340 -0.00000 0.00000
										CHANNELS 3 Zrotation Yrotation Xrotation
										End Site
										{
											OFFSET 0.46229 -0.00000 0.00000
										}
									}
								}
								JOINT LThumb
								{
									OFFSET 0 0 0
									CHANNELS 3 Zrotation Yrotation Xrotation
									End Site
									{
										OFFSET 0.46935 -0.00000 0.46935
									}
								}
							}
						}
					}
				}
				JOINT RightShoulder
				{
					OFFSET 0 0 0
					CHANNELS 3 Zrotation Yrotation Xrotation
					JOINT RightArm
					{
						OFFSET -3.29079 0.52751 0.36356
						CHANNELS 3 Zrotation Yrotation Xrotation
						JOINT RightForeArm
						{
							OFFSET -4.67018 -0.00000 0.00000
							CHANNELS 3 Zrotation Yrotation Xrotation
							JOINT RightHand
							{
								OFFSET -2.65534 -0.00000 0.00000
								CHANNELS 3 Zrotation Yrotation Xrotation
								JOINT RightFingerBase
								{
									OFFSET 0 0 0
									CHANNELS 3 Zrotation Yrotation Xrotation
									JOINT RightHandIndex1
									{
										OFFSET -0.59407 -0.00000 0.00000
										CHANNELS 3 Zrotation Yrotation Xrotation
										End Site
										{
											OFFSET -0.47895 -0.00000 0.00000
										}
									}
								}
								JOINT RThumb
								{
									OFFSET 0 0 0
									CHANNELS 3 Zrotation Yrotation Xrotation
									End Site
									{
										OFFSET -0.48627 -0.00000 0.48627
									}
								}
							}
						}
					}
				}
			}
		}
	}
}
MOTION
Frames: 12
Frame Time: .0083333
-4.4922 17.2644 -2.8303 0 0 0 0 0 0 -21 0 0 0 0 0 0 0 0 0 0 0 0 0 0 21 0 0 0 0 0 0 0 0 0 0 0 0 0 0 0 0 0 0 0 0 0 0 -16 0 0 21 0 0 11 0 0 0 -8 0 0 0 0 0 0 0 0 0 0 0 0 0 0 0 0 0 0 0 0 8 0 0 0 0 0 0 0 0 0 0 0 0 0 0 0 0 0
-4.4922 17.2644 -2.8303 -3.0027 -8.3726 25.8813 0.0000 0.0000 0.0000 -19.3678 -8.8678 -30.6799 6.9094 15.2551 48.5309 0.4917 -2.6086 -12.6069 0.4908 -4.4918 -12.4644 0.0000 0.0000 0.0000 22.4006 15.8066 -43.9120 -2.6521 -10.1093 29.3314 -0.2976 -5.3535 -13.6673 -0.0380 -1.2575 3.4576 1.5604 -2.5240 -15.1946 3.0390 -3.5292 -14.8956 2.0903 -1.8219 -7.4388 6.1042 10.2192 -6.6190 -6.6568 19.0229 50.2748 -0.9342 7.4868 25.3989 0.0000 0.0000 0.0000 -86.0560 -30.7986 67.1807 156.9552 -34.1378 -112.8366 -0.0000 0.0000 -27.9761 36.0072 32.0174 21.0716 -7.1250 0.0000 -0.0000 5.9798 67.5938 3.2537 0.0000 0.0000 0.0000 78.8520 -21.2822 13.0465 -15.5431 24.8973 -3.4514 0.0000 0.0000 12.8807 -12.9362 -10.8769 2.4818 7.1250 -0.0000 -0.0000 12.4881 -40.8121 1.3128
-4.5187 17.2702 -2.7603 -3.2202 -8.3300 26.0802 0.0000 0.0000 0.0000 -18.8253 -8.6142 -32.1443 7.4453 15.6957 50.5389 0.3633 -2.6289 -10.7821 0.3836 -3.9775 -11.0135 0.0000 0.0000 0.0000 22.8704 15.5955 -43.7046 -2.6062 -10.0284 29.0689 -0.3144 -5.0644 -13.6740 -0.0355 -1.2160 3.3433 1.9140 -2.3731 -15.2536 2.9441 -3.3660 -14.8998 1.8047 -1.7767 -7.4442 6.1192 10.1920 -6.6578 -6.4808 18.8665 50.2297 -0.8688 7.4523 25.2575 -0.0000 -0.0000 0.0000 -86.1534 -30.8229 67.2218 156.8895 -34.2095 -112.7997 -0.0000 0.0000 -28.0385 35.7218 31.5751 20.6343 -7.1250 0.0000 -0.0000 5.7170 67.0242 3.0360 -0.0000 -0.0000 0.0000 79.0718 -21.3543 13.3328 -15.6582 25.0550 -3.5000 0.0000 0.0000 12.7668 -12.7268 -10.8011 2.4236 7.1250 -0.0000 -0.0000 12.6513 -40.7182 1.3605
-4.5439 17.2710 -2.6909 -3.5013 -8.2666 26.2765 0.0000 0.0000 0.0000 -18.2113 -8.4172 -33.5785 7.9687 16.0962 52.4499 0.2582 -2.4996 -9.0586 0.3018 -3.5322 -9.7642 0.0000 0.0000 0.0000 23.4879 15.2535 -43.5238 -2.5572 -9.9411 28.7863 -0.3359 -4.6400 -13.6492 -0.0334 -1.1790 3.2416 2.3580 -2.2096 -15.3131 2.8569 -3.1950 -14.8834 1.4768 -1.7352 -7.4292 6.0860 10.1562 -6.7395 -6.2818 18.6881 50.1567 -0.7846 7.4015 25.0789 -0.0000 0.0000 0.0000 -86.1897 -30.9021 67.2298 156.8339 -34.2700 -112.7684 -0.0000 0.0000 -28.1493 35.6881 31.2754 20.4497 -7.1250 0.0000 -0.0000 5.7741 66.6867 3.0218 -0.0000 0.0000 0.0000 79.3198 -21.3244 13.2867 -15.9772 25.4897 -3.6361 0.0000 0.0000 14.1342 -10.7528 -13.0069 2.4475 7.1250 -0.0000 -0.0000 14.9286 -42.7111 0.8640
-4.5675 17.2760 -2.6228 -3.7789 -8.2844 26.4335 0.0000 0.0000 0.0000 -17.6732 -8.4091 -34.8891 8.4758 16.4583 54.2590 0.2460 -1.3825 -8.9852 0.3182 -3.6261 -10.0270 0.0000 0.0000 0.0000 23.9530 15.1945 -43.2163 -2.5105 -9.8569 28.5146 -0.3423 -4.5006 -13.6345 -0.0290 -1.0996 3.0230 2.7424 -2.0216 -15.2891 2.7861 -2.9824 -14.8915 1.2081 -1.6664 -7.4804 6.1572 10.1276 -6.7667 -6.1944 18.5651 50.1035 -0.7728 7.3829 24.9862 0.0000 -0.0000 0.0000 -86.2705 -30.8479 67.3843 156.7738 -34.3353 -112.7345 -0.0000 0.0000 -28.3139 35.8657 30.8385 20.3350 -7.1250 0.0000 -0.0000 6.1781 66.2616 3.1736 0.0000 -0.0000 0.0000 79.4169 -21.4591 13.8581 -16.1056 25.6636 -3.6916 0.0000 0.0000 13.5056 -11.0817 -12.0896 2.3490 7.1250 -0.0000 -0.0000 14.3927 -41.8435 1.1470
-4.5910 17.2779 -2.5551 -4.0320 -8.2822 26.6026 0.0000 0.0000 0.0000 -17.1564 -8.3051 -36.2176 8.9729 16.7902 55.9963 0.2157 -0.4862 -8.6117 0.2919 -3.4744 -9.6025 0.0000 0.0000 0.0000 24.4047 15.0887 -42.9627 -2.4687 -9.7809 28.2700 -0.3538 -4.3028 -13.6529 -0.0269 -1.0581 2.9086 3.1054 -1.8550 -15.2848 2.7196 -2.7967 -14.8949 0.9523 -1.6093 -7.5120 6.1760 10.1024 -6.8109 -6.0773 18.4426 50.0418 -0.7341 7.3565 24.8674 -0.0000 -0.0000 0.0000 -86.3310 -30.8198 67.4975 156.7224 -34.3910 -112.7055 -0.0000 0.0000 -28.4450 35.9610 30.4531 20.1890 -7.1250 0.0000 -0.0000 6.4353 65.8666 3.2476 -0.0000 -0.0000 0.0000 79.5303 -21.5107 14.2567 -16.2575 25.8685 -3.7576 0.0000 0.0000 13.4097 -10.8833 -11.9799 2.2854 7.1250 -0.0000 -0.0000 14.5359 -41.7169 1.2055
-4.6140 17.2795 -2.4875 -4.2587 -8.2860 26.7473 0.0000 0.0000 0.0000 -16.6912 -8.2237 -37.4906 9.4428 17.0844 57.6092 0.1981 0.6710 -8.6778 0.2651 -3.3121 -9.1488 0.0000 0.0000 0.0000 24.7946 15.0331 -42.6849 -2.4313 -9.7119 28.0487 -0.3643 -4.1731 -13.7088 -0.0251 -1.0223 2.8103 3.4251 -1.7010 -15.2594 2.6608 -2.6224 -14.8959 0.7281 -1.5537 -7.5473 6.1957 10.0799 -6.8509 -5.9848 18.3378 49.9780 -0.7057 7.3345 24.7594 0.0000 -0.0000 0.0000 -86.3780 -30.7619 67.6427 156.6725 -34.4451 -112.6773 -0.0000 0.0000 -28.5657 36.0927 30.0677 20.0649 -7.1250 0.0000 -0.0000 6.7355 65.4809 3.3398 0.0000 -0.0000 0.0000 79.5980 -21.5454 14.7260 -16.3902 26.0469 -3.8157 0.0000 0.0000 13.1673 -10.8889 -11.6462 2.2238 7.1250 -0.0000 -0.0000 14.4441 -41.3896 1.3170
-4.6367 17.2815 -2.4196 -4.4371 -8.2905 26.8566 0.0000 0.0000 0.0000 -16.2946 -8.1740 -38.6985 9.8853 17.3448 59.1043 0.1817 2.0497 -9.0764 0.2278 -3.0722 -8.4799 0.0000 0.0000 0.0000 25.0954 15.0284 -42.3920 -2.4049 -9.6630 27.8921 -0.3754 -4.1195 -13.8300 -0.0235 -0.9889 2.7182 3.6825 -1.5690 -15.2172 2.6033 -2.4706 -14.8903 0.5380 -1.5036 -7.5791 6.2197 10.0609 -6.8896 -5.9166 18.2519 49.9163 -0.6877 7.3175 24.6684 0.0000 0.0000 0.0000 -86.4015 -30.6695 67.8121 156.6217 -34.4999 -112.6485 -0.0000 0.0000 -28.6531 36.2147 29.6638 19.9212 -7.1250 0.0000 -0.0000 7.0176 65.0702 3.4135 0.0000 0.0000 0.0000 79.6286 -21.5586 15.2500 -16.5066 26.2028 -3.8670 0.0000 0.0000 12.8119 -11.0523 -11.1506 2.1633 7.1250 -0.0000 -0.0000 14.1775 -40.9170 1.4607
-4.6596 17.2835 -2.3512 -4.5559 -8.2895 26.9288 0.0000 0.0000 0.0000 -15.9710 -8.1521 -39.8376 10.2897 17.5696 60.4524 0.1556 3.5700 -9.6441 0.1753 -2.6971 -7.4366 0.0000 0.0000 0.0000 25.3101 15.0466 -42.0903 -2.3884 -9.6320 27.7931 -0.3879 -4.1243 -14.0118 -0.0217 -0.9515 2.6153 3.8636 -1.4639 -15.1624 2.5438 -2.3467 -14.8771 0.3857 -1.4607 -7.6036 6.2421 10.0422 -6.9271 -5.8664 18.1766 49.8552 -0.6773 7.3020 24.5871 0.0000 0.0000 0.0000 -86.4036 -30.5443 68.0094 156.5613 -34.5651 -112.6143 -0.0000 0.0000 -28.6788 36.3017 29.2310 19.7348 -7.1250 0.0000 -0.0000 7.2483 64.6155 3.4498 0.0000 0.0000 0.0000 79.6302 -21.5369 15.7712 -16.6207 26.3550 -3.9175 0.0000 0.0000 12.5214 -11.1864 -10.7516 2.1128 7.1250 -0.0000 -0.0000 13.9641 -40.5356 1.5721
-4.6826 17.2854 -2.2822 -4.6114 -8.2862 26.9716 0.0000 0.0000 0.0000 -15.7174 -8.1710 -40.9128 10.6504 17.7597 61.6410 0.1146 5.1440 -10.2635 0.1164 -2.1993 -6.0569 0.0000 0.0000 0.0000 25.4387 15.0797 -41.7955 -2.3820 -9.6201 27.7550 -0.4020 -4.1758 -14.2458 -0.0197 -0.9072 2.4934 3.9687 -1.3823 -15.1056 2.4764 -2.2471 -14.8578 0.2645 -1.4234 -7.6181 6.2795 10.0249 -6.9656 -5.8342 18.1106 49.7979 -0.6773 7.2905 24.5233 0.0000 0.0000 0.0000 -86.3869 -30.3877 68.2377 156.4919 -34.6398 -112.5749 -0.0000 0.0000 -28.6169 36.4187 28.8079 19.5709 -7.1250 0.0000 -0.0000 7.5094 64.1786 3.4984 0.0000 0.0000 0.0000 79.6119 -21.4877 16.2846 -16.7436 26.5186 -3.9722 0.0000 0.0000 12.3086 -11.2554 -10.4962 2.0763 7.1250 -0.0000 -0.0000 13.8437 -40.2896 1.6437
-4.7056 17.2875 -2.2129 -4.6144 -8.2875 27.0015 0.0000 0.0000 0.0000 -15.5169 -8.2400 -41.9365 10.9640 17.9174 62.6647 0.0592 6.6886 -10.8795 0.0646 -1.6393 -4.5098 0.0000 0.0000 0.0000 25.4945 15.1279 -41.5231 -2.3850 -9.6258 27.7731 -0.4177 -4.2564 -14.5196 -0.0176 -0.8561 2.3530 4.0125 -1.3190 -15.0555 2.4014 -2.1668 -14.8374 0.1673 -1.3905 -7.6244 6.3144 10.0051 -7.0049 -5.8135 18.0474 49.7452 -0.6829 7.2778 24.4696 0.0000 -0.0000 0.0000 -86.3464 -30.2021 68.4839 156.4128 -34.7247 -112.5299 -0.0000 0.0000 -28.4555 36.4899 28.3688 19.3645 -7.1250 0.0000 -0.0000 7.7020 63.7090 3.5042 0.0000 -0.0000 0.0000 79.5844 -21.4067 16.7571 -16.8717 26.6883 -4.0295 0.0000 0.0000 12.2093 -11.2312 -10.3869 2.0504 7.1250 -0.0000 -0.0000 13.8384 -40.1797 1.6814
-4.7284 17.2894 -2.1436 -4.5775 -8.2983 27.0269 0.0000 0.0000 0.0000 -15.3543 -8.3555 -42.9164 11.2282 18.0449 63.5203 -0.0041 8.1175 -11.4885 0.0285 -1.0905 -2.9979 0.0000 0.0000 0.0000 25.4880 15.1995 -41.2727 -2.3955 -9.6455 27.8361 -0.4349 -4.3586 -14.8254 -0.0155 -0.8050 2.2125 4.0098 -1.2656 -15.0131 2.3184 -2.0963 -14.8169 0.0860 -1.3587 -7.6244 6.3484 9.9805 -7.0465 -5.8054 17.9836 49.6963 -0.6955 7.2629 24.4258 -0.0000 0.0000 0.0000 -86.2893 -29.9942 68.7503 156.3268 -34.8167 -112.4809 -0.0000 0.0000 -28.1846 36.5623 27.9317 19.1572 -7.1250 0.0000 -0.0000 7.8877 63.2400 3.5026 -0.0000 0.0000 0.0000 79.5529 -21.2998 17.1726 -17.0213 26.8858 -4.0969 0.0000 0.0000 12.2703 -11.0000 -10.4648 2.0220 7.1250 -0.0000 -0.0000 14.0545 -40.2370 1.6886
